<svg version="1.1" id="Layer_1" xmlns="http://www.w3.org/2000/svg" xmlns:xlink="http://www.w3.org/1999/xlink" x="0px" y="0px"
	 width="100%" viewBox="0 0 1024 1024" enable-background="new 0 0 1024 1024" xml:space="preserve">
<path fill="#FFFFFF" opacity="1.000000" stroke="none" 
	d="
M567.000000,1025.000000 
	C378.000000,1025.000000 189.500000,1025.000000 1.000000,1025.000000 
	C1.000000,683.666687 1.000000,342.333344 1.000000,1.000000 
	C342.333344,1.000000 683.666687,1.000000 1025.000000,1.000000 
	C1025.000000,342.333344 1025.000000,683.666687 1025.000000,1025.000000 
	C872.500000,1025.000000 720.000000,1025.000000 567.000000,1025.000000 
M554.387512,494.592560 
	C554.387512,507.334656 554.387512,520.076782 554.387512,532.629761 
	C562.037903,532.629761 568.932434,532.629761 575.709717,532.629761 
	C575.709717,498.633514 575.709717,465.039642 575.709717,431.253906 
	C568.594849,431.253906 561.704712,431.253906 554.294983,431.253906 
	C554.294983,443.232910 554.294983,454.958740 554.294983,466.646667 
	C551.870422,466.646667 549.990234,466.646667 547.647339,466.646667 
	C547.647339,454.578064 547.647339,442.847168 547.647339,431.200684 
	C540.389160,431.200684 533.601440,431.200684 526.557617,431.200684 
	C526.557617,465.131897 526.557617,498.852051 526.557617,532.794434 
	C533.695129,532.794434 540.596558,532.794434 547.972961,532.794434 
	C547.972961,518.501831 547.972961,504.437927 547.972961,489.907013 
	C550.868835,490.652893 554.924683,487.919495 554.387512,494.592560 
M667.254395,518.491638 
	C667.254395,509.703430 667.254395,500.915222 667.254395,492.127014 
	C667.700867,492.087219 668.147339,492.047424 668.593811,492.007629 
	C669.025085,493.553009 669.500793,495.087524 669.880432,496.645477 
	C672.555237,507.622955 675.134338,518.624878 677.969788,529.560547 
	C678.315491,530.893921 679.942749,532.792786 681.080872,532.869263 
	C686.348999,533.222961 691.654114,533.025574 697.114563,533.025574 
	C697.114563,498.850677 697.114563,465.091370 697.114563,431.162903 
	C691.286499,431.162903 685.662537,431.162903 679.378662,431.162903 
	C679.378662,445.039001 679.378662,458.816010 679.378662,472.593018 
	C679.019348,472.625397 678.660095,472.657745 678.300781,472.690094 
	C674.606079,458.813751 670.911316,444.937378 667.251221,431.190979 
	C661.151245,431.190979 655.529907,431.190979 649.653320,431.190979 
	C649.653320,465.113037 649.653320,498.837982 649.653320,532.730225 
	C655.575195,532.730225 661.278625,532.730225 667.254272,532.730225 
	C667.254272,528.118958 667.254272,523.802429 667.254395,518.491638 
M382.395599,505.499817 
	C382.395599,514.598206 382.395599,523.696533 382.395599,532.823608 
	C388.675568,532.823608 394.291351,532.823608 400.454956,532.823608 
	C400.454956,519.105896 400.454956,505.583435 400.454956,492.060974 
	C402.043579,493.585663 402.514069,495.257935 402.926422,496.944458 
	C405.570496,507.758453 408.147888,518.589417 410.906006,529.374146 
	C411.247772,530.710632 412.469940,532.798767 413.383057,532.852356 
	C418.932953,533.177917 424.511505,533.014771 429.986206,533.014771 
	C429.986206,498.624878 429.986206,464.916565 429.986206,431.265808 
	C424.060089,431.265808 418.470459,431.265808 412.394409,431.265808 
	C412.394409,445.240906 412.394409,458.951569 412.394409,472.662201 
	C411.052368,471.285492 410.491180,469.790344 410.081787,468.254730 
	C407.086304,457.018524 404.174103,445.759613 401.076080,434.551941 
	C400.711243,433.231995 399.439575,431.223022 398.484497,431.162140 
	C393.248596,430.828644 387.980377,431.003113 382.395721,431.003113 
	C382.395721,455.923035 382.395721,480.211426 382.395599,505.499817 
M178.499573,533.029114 
	C184.478348,532.761475 190.478500,532.722839 196.430389,532.167175 
	C203.587860,531.499023 207.196808,528.633545 208.114975,521.458435 
	C209.143372,513.421875 209.070190,505.231445 209.252609,497.102936 
	C209.447800,488.406372 207.444916,480.807953 196.442978,477.342560 
	C204.589493,475.539093 207.791931,470.871643 207.697632,464.415955 
	C207.598831,457.651581 207.221176,450.789001 205.921280,444.174561 
	C204.733658,438.131348 200.578354,433.236786 194.274490,432.544983 
	C182.829071,431.288971 171.269653,431.071777 159.722473,430.418976 
	C159.722473,465.382477 159.722473,499.082153 159.722473,533.029175 
	C165.866653,533.029175 171.683472,533.029175 178.499573,533.029114 
M443.304840,461.499908 
	C443.304840,485.256653 443.304840,509.013397 443.304840,532.195496 
	C456.075958,532.195496 468.222107,532.613037 480.320404,532.033325 
	C487.188080,531.704285 490.908447,527.326660 492.156830,520.513245 
	C492.605164,518.066162 492.993103,515.564941 493.001221,513.087097 
	C493.066132,493.269226 493.067719,473.450928 492.989227,453.633118 
	C492.978760,450.990204 492.647125,448.295197 492.055298,445.718262 
	C490.472656,438.826752 486.478790,433.480316 479.300781,432.687469 
	C467.502167,431.384308 455.591278,431.097412 443.304901,430.356506 
	C443.304901,441.240021 443.304901,450.869965 443.304840,461.499908 
M839.930481,506.500427 
	C839.930481,500.069397 839.930481,493.638336 839.930481,487.241425 
	C844.368713,486.785706 846.018311,488.717957 846.105591,492.388550 
	C846.216370,497.048920 846.445129,501.707855 846.477356,506.368439 
	C846.538147,515.161255 846.494873,523.954834 846.494873,532.869141 
	C853.336182,532.869141 859.634644,532.869141 866.257385,532.869141 
	C866.257385,521.413879 866.105835,510.112274 866.308228,498.817047 
	C866.453857,490.685394 865.151794,483.525330 855.010742,479.650330 
	C861.831299,478.422607 865.442078,475.214661 865.543091,469.885193 
	C865.706055,461.287781 865.778076,452.579681 864.585144,444.101715 
	C863.712952,437.902374 859.360840,432.843109 852.654968,432.234100 
	C841.443909,431.216003 830.153015,431.075989 818.663696,430.555847 
	C818.663696,465.189606 818.663696,498.927948 818.663696,532.719299 
	C825.839111,532.719299 832.738708,532.719299 839.930481,532.719299 
	C839.930481,524.108276 839.930481,515.804260 839.930481,506.500427 
M588.763428,431.083069 
	C588.501587,432.648956 588.016357,434.214172 588.011902,435.780762 
	C587.959351,454.435272 587.902649,473.090485 588.015198,491.744476 
	C588.061340,499.396149 588.134033,507.082031 588.869080,514.687134 
	C589.995789,526.344666 598.584045,533.861206 611.161316,534.928833 
	C623.022522,535.935730 632.619934,529.879150 635.786072,518.973083 
	C636.744202,515.672607 637.027527,512.079956 637.045288,508.618225 
	C637.173645,483.635132 637.155640,458.651276 637.174866,433.667664 
	C637.175476,432.889587 637.075500,432.111420 637.023926,431.355286 
	C629.769287,431.355286 622.887207,431.355286 615.833984,431.355286 
	C615.833984,457.858612 615.881042,484.005859 615.766846,510.152374 
	C615.754333,513.014099 616.867188,517.720947 612.478394,517.662842 
	C608.383057,517.608704 609.706299,512.955872 609.685364,510.320892 
	C609.491516,485.838715 609.523743,461.354736 609.491028,436.871277 
	C609.488647,435.068726 609.490723,433.266174 609.490723,431.007172 
	C602.622375,431.007172 596.174316,431.007172 588.763428,431.083069 
M368.064178,520.380737 
	C368.717712,517.641296 369.915955,514.906128 369.937744,512.161682 
	C370.097473,492.025787 370.452911,471.875580 369.868561,451.755341 
	C369.478851,438.335876 359.800964,429.559570 346.677643,429.019135 
	C333.359741,428.470673 323.689667,436.276031 321.782043,449.756714 
	C320.924469,455.816986 320.886261,462.030273 320.917267,468.171906 
	C320.993713,483.310150 320.641602,498.498199 321.767822,513.568665 
	C322.690674,525.917480 330.007568,532.685608 341.535004,534.637817 
	C352.985535,536.577026 362.225586,531.822205 368.064178,520.380737 
M719.597717,530.991028 
	C729.141846,537.474548 737.515686,536.296326 744.459778,526.467834 
	C745.241272,529.038025 745.811584,530.913818 746.383484,532.794556 
	C750.843994,532.794556 755.115845,532.794556 759.587341,532.794556 
	C759.587341,514.837219 759.587341,497.111603 759.587341,479.273560 
	C751.244995,479.273560 743.172363,479.273560 734.957520,479.273560 
	C734.957520,484.169281 734.957520,488.787079 734.957520,493.475403 
	C736.352905,493.896698 737.656799,494.290405 738.776733,494.628540 
	C738.776733,500.839691 739.098694,506.697296 738.594604,512.482910 
	C738.427917,514.395996 736.131958,516.123535 734.809570,517.935913 
	C733.641663,516.197815 732.295837,514.547241 731.379578,512.685303 
	C730.907776,511.726807 731.157837,510.391998 731.154968,509.227051 
	C731.130005,499.062286 731.087036,488.897339 731.118469,478.732697 
	C731.147339,469.403168 731.103149,460.067291 731.490356,450.750824 
	C731.557007,449.146271 733.617493,447.624573 734.756897,446.064606 
	C735.828613,447.648102 737.720520,449.179626 737.824707,450.824371 
	C738.199890,456.746521 737.972046,462.706879 737.972046,468.736328 
	C745.683472,468.736328 752.586060,468.736328 760.134827,468.736328 
	C759.651794,461.976532 759.666077,455.465881 758.632507,449.126038 
	C756.557434,436.397339 746.592468,428.692047 733.466675,428.999207 
	C720.928162,429.292572 711.403625,437.116486 710.774658,450.236115 
	C709.778931,471.008026 710.067932,491.855957 710.324463,512.665405 
	C710.410278,519.629395 713.330383,525.946106 719.597717,530.991028 
M253.235107,451.030670 
	C254.483200,450.931091 255.731277,450.831482 256.830444,450.743774 
	C256.830444,443.971832 256.830444,437.576233 256.830444,431.301331 
	C244.912842,431.301331 233.330002,431.301331 221.738373,431.301331 
	C221.738373,465.339539 221.738373,499.065857 221.738373,532.714783 
	C234.173599,532.714783 246.257782,532.714783 258.349609,532.714783 
	C258.349609,525.997131 258.349609,519.601685 258.349609,512.819458 
	C253.068146,512.819458 248.133331,512.819458 243.268921,512.819458 
	C243.268921,505.025208 243.268921,497.632660 243.268921,489.910400 
	C247.706070,489.910400 251.811249,489.910400 255.969437,489.910400 
	C255.969437,483.462982 255.969437,477.358887 255.969437,470.752594 
	C251.495041,470.752594 247.256577,470.752594 243.178833,470.752594 
	C243.178833,463.966309 243.178833,457.688354 243.178833,451.030701 
	C246.380905,451.030701 249.342422,451.030701 253.235107,451.030670 
M771.390076,434.800110 
	C771.390076,467.418274 771.390076,500.036407 771.390076,532.806030 
	C784.015625,532.806030 796.107056,532.806030 808.426758,532.806030 
	C808.426758,526.177979 808.426758,519.775574 808.426758,512.800964 
	C803.113464,512.800964 798.060547,512.800964 793.185303,512.800964 
	C793.185303,504.950378 793.185303,497.675079 793.185303,490.071167 
	C797.547607,490.071167 801.664551,490.071167 805.992432,490.071167 
	C805.992432,483.623535 805.992432,477.509766 805.992432,470.900330 
	C801.661804,470.900330 797.419678,470.900330 793.278076,470.900330 
	C793.278076,464.008514 793.278076,457.615784 793.278076,450.881287 
	C798.049561,450.881287 802.479126,450.881287 806.907288,450.881287 
	C806.907288,444.093781 806.907288,437.664948 806.907288,430.992065 
	C795.833069,430.992065 785.011169,430.920349 774.194092,431.116821 
	C773.243591,431.134094 772.325012,432.907532 771.390076,434.800110 
M302.566223,430.996460 
	C300.085785,430.996460 297.605377,430.996460 294.776093,430.996460 
	C292.770721,444.009430 290.802673,456.780151 288.834656,469.550873 
	C288.617218,469.545074 288.399780,469.539276 288.182373,469.533478 
	C286.415131,456.749908 284.647919,443.966339 282.880646,431.182251 
	C276.342224,431.182251 270.214203,431.182251 263.687378,431.182251 
	C270.332031,464.993652 283.274719,497.613800 278.060486,532.736694 
	C285.563110,532.736694 291.813202,532.736694 298.391174,532.736694 
	C298.391174,525.306763 298.280304,518.158081 298.424927,511.014587 
	C298.549225,504.874146 298.339844,498.629150 299.400024,492.628632 
	C300.958649,483.806885 303.538239,475.166992 305.642029,466.439789 
	C308.459808,454.750977 311.238586,443.052795 314.120667,430.996460 
	C310.175476,430.996460 306.855499,430.996460 302.566223,430.996460 
z"/>
<path fill="#D90D0D" opacity="1.000000" stroke="none" 
	d="
M554.387024,494.105957 
	C554.924683,487.919495 550.868835,490.652893 547.972961,489.907013 
	C547.972961,504.437927 547.972961,518.501831 547.972961,532.794434 
	C540.596558,532.794434 533.695129,532.794434 526.557617,532.794434 
	C526.557617,498.852051 526.557617,465.131897 526.557617,431.200684 
	C533.601440,431.200684 540.389160,431.200684 547.647339,431.200684 
	C547.647339,442.847168 547.647339,454.578064 547.647339,466.646667 
	C549.990234,466.646667 551.870422,466.646667 554.294983,466.646667 
	C554.294983,454.958740 554.294983,443.232910 554.294983,431.253906 
	C561.704712,431.253906 568.594849,431.253906 575.709717,431.253906 
	C575.709717,465.039642 575.709717,498.633514 575.709717,532.629761 
	C568.932434,532.629761 562.037903,532.629761 554.387512,532.629761 
	C554.387512,520.076782 554.387512,507.334656 554.387024,494.105957 
z"/>
<path fill="#D80B0B" opacity="1.000000" stroke="none" 
	d="
M667.254333,518.988770 
	C667.254272,523.802429 667.254272,528.118958 667.254272,532.730225 
	C661.278625,532.730225 655.575195,532.730225 649.653320,532.730225 
	C649.653320,498.837982 649.653320,465.113037 649.653320,431.190979 
	C655.529907,431.190979 661.151245,431.190979 667.251221,431.190979 
	C670.911316,444.937378 674.606079,458.813751 678.300781,472.690094 
	C678.660095,472.657745 679.019348,472.625397 679.378662,472.593018 
	C679.378662,458.816010 679.378662,445.039001 679.378662,431.162903 
	C685.662537,431.162903 691.286499,431.162903 697.114563,431.162903 
	C697.114563,465.091370 697.114563,498.850677 697.114563,533.025574 
	C691.654114,533.025574 686.348999,533.222961 681.080872,532.869263 
	C679.942749,532.792786 678.315491,530.893921 677.969788,529.560547 
	C675.134338,518.624878 672.555237,507.622955 669.880432,496.645477 
	C669.500793,495.087524 669.025085,493.553009 668.593811,492.007629 
	C668.147339,492.047424 667.700867,492.087219 667.254395,492.127014 
	C667.254395,500.915222 667.254395,509.703430 667.254333,518.988770 
z"/>
<path fill="#D80B0B" opacity="1.000000" stroke="none" 
	d="
M382.395660,504.999817 
	C382.395721,480.211426 382.395721,455.923035 382.395721,431.003113 
	C387.980377,431.003113 393.248596,430.828644 398.484497,431.162140 
	C399.439575,431.223022 400.711243,433.231995 401.076080,434.551941 
	C404.174103,445.759613 407.086304,457.018524 410.081787,468.254730 
	C410.491180,469.790344 411.052368,471.285492 412.394409,472.662201 
	C412.394409,458.951569 412.394409,445.240906 412.394409,431.265808 
	C418.470459,431.265808 424.060089,431.265808 429.986206,431.265808 
	C429.986206,464.916565 429.986206,498.624878 429.986206,533.014771 
	C424.511505,533.014771 418.932953,533.177917 413.383057,532.852356 
	C412.469940,532.798767 411.247772,530.710632 410.906006,529.374146 
	C408.147888,518.589417 405.570496,507.758453 402.926422,496.944458 
	C402.514069,495.257935 402.043579,493.585663 400.454956,492.060974 
	C400.454956,505.583435 400.454956,519.105896 400.454956,532.823608 
	C394.291351,532.823608 388.675568,532.823608 382.395599,532.823608 
	C382.395599,523.696533 382.395599,514.598206 382.395660,504.999817 
z"/>
<path fill="#D80C0C" opacity="1.000000" stroke="none" 
	d="
M177.999939,533.029175 
	C171.683472,533.029175 165.866653,533.029175 159.722473,533.029175 
	C159.722473,499.082153 159.722473,465.382477 159.722473,430.418976 
	C171.269653,431.071777 182.829071,431.288971 194.274490,432.544983 
	C200.578354,433.236786 204.733658,438.131348 205.921280,444.174561 
	C207.221176,450.789001 207.598831,457.651581 207.697632,464.415955 
	C207.791931,470.871643 204.589493,475.539093 196.442978,477.342560 
	C207.444916,480.807953 209.447800,488.406372 209.252609,497.102936 
	C209.070190,505.231445 209.143372,513.421875 208.114975,521.458435 
	C207.196808,528.633545 203.587860,531.499023 196.430389,532.167175 
	C190.478500,532.722839 184.478348,532.761475 177.999939,533.029175 
M187.987167,506.300018 
	C187.973007,501.997192 187.911987,497.693848 187.957520,493.391632 
	C188.005768,488.833191 186.023056,486.598907 181.141525,487.249237 
	C181.141525,496.792633 181.141525,506.286346 181.141525,515.802307 
	C187.218124,515.298706 187.752441,514.599731 187.987167,506.300018 
M187.708221,452.311829 
	C186.792297,448.879425 184.766113,447.355713 181.093475,448.401855 
	C181.093475,455.928192 181.093475,463.340027 181.093475,470.736847 
	C185.960892,471.708893 187.824814,469.431152 187.868301,465.135345 
	C187.908661,461.149353 187.856857,457.162415 187.708221,452.311829 
z"/>
<path fill="#D80B0B" opacity="1.000000" stroke="none" 
	d="
M443.304871,460.999878 
	C443.304901,450.869965 443.304901,441.240021 443.304901,430.356506 
	C455.591278,431.097412 467.502167,431.384308 479.300781,432.687469 
	C486.478790,433.480316 490.472656,438.826752 492.055298,445.718262 
	C492.647125,448.295197 492.978760,450.990204 492.989227,453.633118 
	C493.067719,473.450928 493.066132,493.269226 493.001221,513.087097 
	C492.993103,515.564941 492.605164,518.066162 492.156830,520.513245 
	C490.908447,527.326660 487.188080,531.704285 480.320404,532.033325 
	C468.222107,532.613037 456.075958,532.195496 443.304840,532.195496 
	C443.304840,509.013397 443.304840,485.256653 443.304871,460.999878 
M471.698517,507.953308 
	C471.757111,496.629578 471.842834,485.305908 471.863892,473.982086 
	C471.876312,467.321136 471.911163,460.655914 471.694763,454.000427 
	C471.565582,450.025665 469.866028,447.384491 465.162476,448.310730 
	C465.162476,470.941345 465.162476,493.357330 465.162476,515.773315 
	C470.872833,516.488525 471.089630,512.518738 471.698517,507.953308 
z"/>
<path fill="#D80C0C" opacity="1.000000" stroke="none" 
	d="
M839.930481,507.000305 
	C839.930481,515.804260 839.930481,524.108276 839.930481,532.719299 
	C832.738708,532.719299 825.839111,532.719299 818.663696,532.719299 
	C818.663696,498.927948 818.663696,465.189606 818.663696,430.555847 
	C830.153015,431.075989 841.443909,431.216003 852.654968,432.234100 
	C859.360840,432.843109 863.712952,437.902374 864.585144,444.101715 
	C865.778076,452.579681 865.706055,461.287781 865.543091,469.885193 
	C865.442078,475.214661 861.831299,478.422607 855.010742,479.650330 
	C865.151794,483.525330 866.453857,490.685394 866.308228,498.817047 
	C866.105835,510.112274 866.257385,521.413879 866.257385,532.869141 
	C859.634644,532.869141 853.336182,532.869141 846.494873,532.869141 
	C846.494873,523.954834 846.538147,515.161255 846.477356,506.368439 
	C846.445129,501.707855 846.216370,497.048920 846.105591,492.388550 
	C846.018311,488.717957 844.368713,486.785706 839.930481,487.241425 
	C839.930481,493.638336 839.930481,500.069397 839.930481,507.000305 
M846.010315,451.732910 
	C845.224365,448.502991 843.041199,447.896790 840.161255,448.189423 
	C840.161255,456.006622 840.161255,463.396545 840.161255,470.779602 
	C844.161133,471.320953 846.123779,469.628754 846.191467,465.911713 
	C846.272583,461.458557 846.184143,457.002289 846.010315,451.732910 
z"/>
<path fill="#D80909" opacity="1.000000" stroke="none" 
	d="
M589.244873,431.045105 
	C596.174316,431.007172 602.622375,431.007172 609.490723,431.007172 
	C609.490723,433.266174 609.488647,435.068726 609.491028,436.871277 
	C609.523743,461.354736 609.491516,485.838715 609.685364,510.320892 
	C609.706299,512.955872 608.383057,517.608704 612.478394,517.662842 
	C616.867188,517.720947 615.754333,513.014099 615.766846,510.152374 
	C615.881042,484.005859 615.833984,457.858612 615.833984,431.355286 
	C622.887207,431.355286 629.769287,431.355286 637.023926,431.355286 
	C637.075500,432.111420 637.175476,432.889587 637.174866,433.667664 
	C637.155640,458.651276 637.173645,483.635132 637.045288,508.618225 
	C637.027527,512.079956 636.744202,515.672607 635.786072,518.973083 
	C632.619934,529.879150 623.022522,535.935730 611.161316,534.928833 
	C598.584045,533.861206 589.995789,526.344666 588.869080,514.687134 
	C588.134033,507.082031 588.061340,499.396149 588.015198,491.744476 
	C587.902649,473.090485 587.959351,454.435272 588.011902,435.780762 
	C588.016357,434.214172 588.501587,432.648956 589.244873,431.045105 
z"/>
<path fill="#D80A0A" opacity="1.000000" stroke="none" 
	d="
M367.938538,520.748108 
	C362.225586,531.822205 352.985535,536.577026 341.535004,534.637817 
	C330.007568,532.685608 322.690674,525.917480 321.767822,513.568665 
	C320.641602,498.498199 320.993713,483.310150 320.917267,468.171906 
	C320.886261,462.030273 320.924469,455.816986 321.782043,449.756714 
	C323.689667,436.276031 333.359741,428.470673 346.677643,429.019135 
	C359.800964,429.559570 369.478851,438.335876 369.868561,451.755341 
	C370.452911,471.875580 370.097473,492.025787 369.937744,512.161682 
	C369.915955,514.906128 368.717712,517.641296 367.938538,520.748108 
M342.122711,479.500000 
	C342.188995,490.810699 342.123322,502.125488 342.476349,513.427246 
	C342.524414,514.967041 344.664490,516.441467 345.835907,517.946167 
	C346.851624,516.453979 348.069153,515.053894 348.807678,513.435303 
	C349.253387,512.458496 348.983643,511.142151 348.986359,509.978271 
	C349.026276,492.843933 349.067322,475.709595 349.082275,458.575256 
	C349.084747,455.748413 349.274414,452.865173 348.775757,450.117218 
	C348.508423,448.644104 346.959198,447.403625 345.988373,446.058136 
	C344.848755,447.234528 343.261505,448.228302 342.687469,449.635437 
	C342.030243,451.246460 342.156128,453.223877 342.144928,455.043365 
	C342.096863,462.862000 342.123383,470.681091 342.122711,479.500000 
z"/>
<path fill="#D80B0B" opacity="1.000000" stroke="none" 
	d="
M719.310974,530.769653 
	C713.330383,525.946106 710.410278,519.629395 710.324463,512.665405 
	C710.067932,491.855957 709.778931,471.008026 710.774658,450.236115 
	C711.403625,437.116486 720.928162,429.292572 733.466675,428.999207 
	C746.592468,428.692047 756.557434,436.397339 758.632507,449.126038 
	C759.666077,455.465881 759.651794,461.976532 760.134827,468.736328 
	C752.586060,468.736328 745.683472,468.736328 737.972046,468.736328 
	C737.972046,462.706879 738.199890,456.746521 737.824707,450.824371 
	C737.720520,449.179626 735.828613,447.648102 734.756897,446.064606 
	C733.617493,447.624573 731.557007,449.146271 731.490356,450.750824 
	C731.103149,460.067291 731.147339,469.403168 731.118469,478.732697 
	C731.087036,488.897339 731.130005,499.062286 731.154968,509.227051 
	C731.157837,510.391998 730.907776,511.726807 731.379578,512.685303 
	C732.295837,514.547241 733.641663,516.197815 734.809570,517.935913 
	C736.131958,516.123535 738.427917,514.395996 738.594604,512.482910 
	C739.098694,506.697296 738.776733,500.839691 738.776733,494.628540 
	C737.656799,494.290405 736.352905,493.896698 734.957520,493.475403 
	C734.957520,488.787079 734.957520,484.169281 734.957520,479.273560 
	C743.172363,479.273560 751.244995,479.273560 759.587341,479.273560 
	C759.587341,497.111603 759.587341,514.837219 759.587341,532.794556 
	C755.115845,532.794556 750.843994,532.794556 746.383484,532.794556 
	C745.811584,530.913818 745.241272,529.038025 744.459778,526.467834 
	C737.515686,536.296326 729.141846,537.474548 719.310974,530.769653 
z"/>
<path fill="#D90D0D" opacity="1.000000" stroke="none" 
	d="
M252.769516,451.030701 
	C249.342422,451.030701 246.380905,451.030701 243.178833,451.030701 
	C243.178833,457.688354 243.178833,463.966309 243.178833,470.752594 
	C247.256577,470.752594 251.495041,470.752594 255.969437,470.752594 
	C255.969437,477.358887 255.969437,483.462982 255.969437,489.910400 
	C251.811249,489.910400 247.706070,489.910400 243.268921,489.910400 
	C243.268921,497.632660 243.268921,505.025208 243.268921,512.819458 
	C248.133331,512.819458 253.068146,512.819458 258.349609,512.819458 
	C258.349609,519.601685 258.349609,525.997131 258.349609,532.714783 
	C246.257782,532.714783 234.173599,532.714783 221.738373,532.714783 
	C221.738373,499.065857 221.738373,465.339539 221.738373,431.301331 
	C233.330002,431.301331 244.912842,431.301331 256.830444,431.301331 
	C256.830444,437.576233 256.830444,443.971832 256.830444,450.743774 
	C255.731277,450.831482 254.483200,450.931091 252.769516,451.030701 
z"/>
<path fill="#D90D0D" opacity="1.000000" stroke="none" 
	d="
M771.390869,434.332703 
	C772.325012,432.907532 773.243591,431.134094 774.194092,431.116821 
	C785.011169,430.920349 795.833069,430.992065 806.907288,430.992065 
	C806.907288,437.664948 806.907288,444.093781 806.907288,450.881287 
	C802.479126,450.881287 798.049561,450.881287 793.278076,450.881287 
	C793.278076,457.615784 793.278076,464.008514 793.278076,470.900330 
	C797.419678,470.900330 801.661804,470.900330 805.992432,470.900330 
	C805.992432,477.509766 805.992432,483.623535 805.992432,490.071167 
	C801.664551,490.071167 797.547607,490.071167 793.185303,490.071167 
	C793.185303,497.675079 793.185303,504.950378 793.185303,512.800964 
	C798.060547,512.800964 803.113464,512.800964 808.426758,512.800964 
	C808.426758,519.775574 808.426758,526.177979 808.426758,532.806030 
	C796.107056,532.806030 784.015625,532.806030 771.390076,532.806030 
	C771.390076,500.036407 771.390076,467.418274 771.390869,434.332703 
z"/>
<path fill="#D80A0A" opacity="1.000000" stroke="none" 
	d="
M303.050873,430.996460 
	C306.855499,430.996460 310.175476,430.996460 314.120667,430.996460 
	C311.238586,443.052795 308.459808,454.750977 305.642029,466.439789 
	C303.538239,475.166992 300.958649,483.806885 299.400024,492.628632 
	C298.339844,498.629150 298.549225,504.874146 298.424927,511.014587 
	C298.280304,518.158081 298.391174,525.306763 298.391174,532.736694 
	C291.813202,532.736694 285.563110,532.736694 278.060486,532.736694 
	C283.274719,497.613800 270.332031,464.993652 263.687378,431.182251 
	C270.214203,431.182251 276.342224,431.182251 282.880646,431.182251 
	C284.647919,443.966339 286.415131,456.749908 288.182373,469.533478 
	C288.399780,469.539276 288.617218,469.545074 288.834656,469.550873 
	C290.802673,456.780151 292.770721,444.009430 294.776093,430.996460 
	C297.605377,430.996460 300.085785,430.996460 303.050873,430.996460 
z"/>
<path fill="#FDF6F6" opacity="1.000000" stroke="none" 
	d="
M187.982117,506.766785 
	C187.752441,514.599731 187.218124,515.298706 181.141525,515.802307 
	C181.141525,506.286346 181.141525,496.792633 181.141525,487.249237 
	C186.023056,486.598907 188.005768,488.833191 187.957520,493.391632 
	C187.911987,497.693848 187.973007,501.997192 187.982117,506.766785 
z"/>
<path fill="#FDF6F6" opacity="1.000000" stroke="none" 
	d="
M187.776917,452.743866 
	C187.856857,457.162415 187.908661,461.149353 187.868301,465.135345 
	C187.824814,469.431152 185.960892,471.708893 181.093475,470.736847 
	C181.093475,463.340027 181.093475,455.928192 181.093475,448.401855 
	C184.766113,447.355713 186.792297,448.879425 187.776917,452.743866 
z"/>
<path fill="#FDF6F6" opacity="1.000000" stroke="none" 
	d="
M471.660950,508.392883 
	C471.089630,512.518738 470.872833,516.488525 465.162476,515.773315 
	C465.162476,493.357330 465.162476,470.941345 465.162476,448.310730 
	C469.866028,447.384491 471.565582,450.025665 471.694763,454.000427 
	C471.911163,460.655914 471.876312,467.321136 471.863892,473.982086 
	C471.842834,485.305908 471.757111,496.629578 471.660950,508.392883 
z"/>
<path fill="#FDF6F6" opacity="1.000000" stroke="none" 
	d="
M846.089722,452.140137 
	C846.184143,457.002289 846.272583,461.458557 846.191467,465.911713 
	C846.123779,469.628754 844.161133,471.320953 840.161255,470.779602 
	C840.161255,463.396545 840.161255,456.006622 840.161255,448.189423 
	C843.041199,447.896790 845.224365,448.502991 846.089722,452.140137 
z"/>
<path fill="#FDF6F6" opacity="1.000000" stroke="none" 
	d="
M342.122711,479.000000 
	C342.123383,470.681091 342.096863,462.862000 342.144928,455.043365 
	C342.156128,453.223877 342.030243,451.246460 342.687469,449.635437 
	C343.261505,448.228302 344.848755,447.234528 345.988403,446.058167 
	C346.959198,447.403625 348.508423,448.644104 348.775757,450.117218 
	C349.274414,452.865173 349.084747,455.748413 349.082275,458.575256 
	C349.067322,475.709595 349.026276,492.843933 348.986359,509.978271 
	C348.983643,511.142151 349.253387,512.458496 348.807678,513.435303 
	C348.069153,515.053894 346.851624,516.453979 345.835938,517.946167 
	C344.664490,516.441467 342.524414,514.967041 342.476349,513.427246 
	C342.123322,502.125488 342.188995,490.810699 342.122711,479.000000 
z"/>
</svg>